<svg preserveAspectRatio="none" overflow="visible" style="display: block;" width="454.525" height="195.579" viewBox="0 0 454.525 195.579" fill="none" xmlns="http://www.w3.org/2000/svg">
<g id="Logomark" clip-path="url(#clip0_0_61)">
<g id="Single Color Logo">
<path fill-rule="evenodd" clip-rule="evenodd" d="M53.6739 78.2313H114.134V0H124.303V78.2313H135.981V0H146.151V78.2313H157.829V0H167.998V78.2313H211.37L243.775 0H254.783L173.771 195.579H157.829V132.096H146.151V195.579H135.981V132.096H124.303V195.579H114.134V132.096H53.6739V195.579H43.504V0H53.6739V78.2313ZM167.998 182.94L189.059 132.096H167.998V182.94ZM53.6739 121.926H193.271L198.108 110.249H53.6739V121.926ZM53.6739 100.079H202.321L207.158 88.4012H53.6739V100.079Z" fill="#411A3C"/>
<path d="M197.419 195.579H186.411L267.423 0H278.43L197.419 195.579Z" fill="#411A3C"/>
<path fill-rule="evenodd" clip-rule="evenodd" d="M302.003 0.178966L334.334 78.2313H346.973L314.569 0H325.577L357.981 78.2313H401.135V0H411.305V195.579H395.58L369.285 132.096H356.645L382.941 195.579H371.933L345.637 132.096H332.997L359.293 195.579H348.285L321.989 132.096H247.362L221.066 195.579H210.058L290.995 0.178966L290.921 0H302.077L302.003 0.178966ZM401.135 182.414V132.096H380.292L401.135 182.414ZM251.574 121.926H401.135V110.249H256.411L251.574 121.926ZM260.624 100.079H401.135V88.4012H265.461L260.624 100.079ZM269.674 78.2313H299.678L284.676 42.0128L269.674 78.2313ZM290.179 28.7245L310.686 78.2313H323.326L296.499 13.4669L290.179 28.7245Z" fill="#411A3C"/>
<path d="M9.97888 195.579H-0.191032V0H9.97888V195.579Z" fill="#411A3C"/>
<path d="M31.8264 195.579H21.6565V0H31.8264V195.579Z" fill="#411A3C"/>
<path d="M433.153 195.579H422.983V0H433.153V195.579Z" fill="#411A3C"/>
<path d="M455 195.579H444.83V0H455V195.579Z" fill="#411A3C"/>
</g>
</g>
<defs>
<clipPath id="clip0_0_61">
<rect width="454.525" height="195.579" fill="white"/>
</clipPath>
</defs>
</svg>
